<svg xmlns="http://www.w3.org/2000/svg" height="24px" viewBox="0 -960 960 960" width="24px" fill="#e3e3e3"><path d="M460-804.62V-900h40v95.38h-40ZM460-60v-95.38h40V-60h-40Zm344.62-400v-40H900v40h-95.38ZM60-460v-40h95.38v40H60Zm672.62-244.31-28.31-28.31L762-790.77 790.77-762l-58.15 57.69ZM198-169.23 169.23-198l58.15-57.69 28.31 28.31L198-169.23Zm564 0-57.69-58.15 28.31-28.31L790.77-198 762-169.23ZM227.38-704.31 169.23-762 198-790.77l57.69 58.15-28.31 28.31Zm111.08 365.85Q280-396.92 280-480q0-83.08 58.46-141.54Q396.92-680 480-680q83.08 0 141.54 58.46Q680-563.08 680-480q0 83.08-58.46 141.54Q563.08-280 480-280q-83.08 0-141.54-58.46ZM593.5-366.5Q640-413 640-480t-46.5-113.5Q547-640 480-640t-113.5 46.5Q320-547 320-480t46.5 113.5Q413-320 480-320t113.5-46.5ZM480-480Z"/></svg>